<?xml version="1.0" encoding="utf-8"?>
<!-- Generator: Adobe Illustrator 18.1.0, SVG Export Plug-In . SVG Version: 6.00 Build 0)  -->
<!DOCTYPE svg PUBLIC "-//W3C//DTD SVG 1.1//EN" "http://www.w3.org/Graphics/SVG/1.1/DTD/svg11.dtd">
<svg version="1.1" id="Layer_1" xmlns="http://www.w3.org/2000/svg" xmlns:xlink="http://www.w3.org/1999/xlink" x="0px" y="0px"
	 viewBox="0 0 125 125" enable-background="new 0 0 125 125" xml:space="preserve">
<rect fill="#CAE5D8" width="125" height="125"/>
<g>
	<g>
		<g>
			<g>
				<polygon fill="#82D1A6" points="118.9,91.8 40.8,91.8 40.8,56.9 41.2,56.9 41.2,91.5 118.9,91.5 118.9,91.8 				"/>
				<polygon fill="#82D1A6" points="118.9,87.5 39.9,87.5 39.9,87.3 118.9,87.3 118.9,87.5 				"/>
				<polygon fill="#82D1A6" points="118.9,83.3 39.9,83.3 39.9,83.1 118.9,83.1 118.9,83.3 				"/>
				<polygon fill="#82D1A6" points="118.9,79 39.9,79 39.9,78.9 118.9,78.9 118.9,79 				"/>
				<polygon fill="#82D1A6" points="118.9,74.8 39.9,74.8 39.9,74.7 118.9,74.7 118.9,74.8 				"/>
				<polygon fill="#82D1A6" points="118.9,70.6 39.9,70.6 39.9,70.4 118.9,70.4 118.9,70.6 				"/>
				<polygon fill="#82D1A6" points="118.9,66.4 39.9,66.4 39.9,66.2 118.9,66.2 118.9,66.4 				"/>
				<polygon fill="#82D1A6" points="118.9,62.2 39.9,62.2 39.9,62 118.9,62 118.9,62.2 				"/>
				<polygon fill="#82D1A6" points="118.9,57.9 39.9,57.9 39.9,57.8 118.9,57.8 118.9,57.9 				"/>
			</g>
		</g>
		<g>
			<path fill="#82D1A6" d="M35.9,87.5c0,0.4-0.2,0.6-0.5,0.6c-0.3,0-0.5-0.2-0.5-0.6c0-0.4,0.2-0.6,0.5-0.6
				C35.7,86.9,35.9,87.1,35.9,87.5z M35,87.5c0,0.3,0.1,0.5,0.3,0.5c0.2,0,0.3-0.2,0.3-0.5c0-0.3-0.1-0.5-0.3-0.5
				C35.2,87,35,87.2,35,87.5z"/>
			<path fill="#82D1A6" d="M36,88.3c0-0.1,0.1-0.3,0.1-0.4l0.2,0c-0.1,0.2-0.2,0.4-0.2,0.4L36,88.3z"/>
			<path fill="#82D1A6" d="M37.6,87.5c0,0.4-0.2,0.6-0.5,0.6c-0.3,0-0.5-0.2-0.5-0.6c0-0.4,0.2-0.6,0.5-0.6
				C37.4,86.9,37.6,87.1,37.6,87.5z M36.7,87.5c0,0.3,0.1,0.5,0.3,0.5c0.2,0,0.3-0.2,0.3-0.5c0-0.3-0.1-0.5-0.3-0.5
				C36.9,87,36.7,87.2,36.7,87.5z"/>
		</g>
		<g>
			<path fill="#82D1A6" d="M35.9,83.4c0,0.4-0.2,0.6-0.5,0.6c-0.3,0-0.5-0.2-0.5-0.6c0-0.4,0.2-0.6,0.5-0.6
				C35.7,82.8,35.9,83,35.9,83.4z M35,83.4c0,0.3,0.1,0.5,0.3,0.5c0.2,0,0.3-0.2,0.3-0.5c0-0.3-0.1-0.5-0.3-0.5
				C35.2,82.9,35,83.1,35,83.4z"/>
			<path fill="#82D1A6" d="M36,84.2c0-0.1,0.1-0.3,0.1-0.4l0.2,0c-0.1,0.2-0.2,0.4-0.2,0.4L36,84.2z"/>
			<path fill="#82D1A6" d="M37.5,82.9h-0.6l-0.1,0.3c0,0,0.1,0,0.1,0c0.1,0,0.2,0,0.3,0.1c0.1,0,0.2,0.2,0.2,0.3
				c0,0.2-0.2,0.4-0.6,0.4c-0.2,0-0.3,0-0.4-0.1l0-0.1c0.1,0,0.2,0.1,0.3,0.1c0.2,0,0.4-0.1,0.4-0.2c0-0.2-0.1-0.3-0.4-0.3
				c-0.1,0-0.2,0-0.2,0l0.1-0.6h0.7V82.9z"/>
		</g>
		<g>
			<path fill="#82D1A6" d="M35.3,78.6L35.3,78.6L35,78.8l0-0.1l0.3-0.1h0.2v1.2h-0.2V78.6z"/>
			<path fill="#82D1A6" d="M36,79.9c0-0.1,0.1-0.3,0.1-0.4l0.2,0c-0.1,0.1-0.2,0.3-0.2,0.4L36,79.9z"/>
			<path fill="#82D1A6" d="M37.6,79.1c0,0.4-0.2,0.6-0.5,0.6c-0.3,0-0.5-0.2-0.5-0.6c0-0.4,0.2-0.6,0.5-0.6
				C37.4,78.5,37.6,78.7,37.6,79.1z M36.7,79.1c0,0.3,0.1,0.5,0.3,0.5c0.2,0,0.3-0.2,0.3-0.5c0-0.3-0.1-0.5-0.3-0.5
				C36.9,78.6,36.7,78.8,36.7,79.1z"/>
		</g>
		<g>
			<path fill="#82D1A6" d="M35.3,74.4L35.3,74.4L35,74.6l0-0.1l0.3-0.1h0.2v1.2h-0.2V74.4z"/>
			<path fill="#82D1A6" d="M36,75.7c0-0.1,0.1-0.3,0.1-0.4l0.2,0c-0.1,0.2-0.2,0.4-0.2,0.4L36,75.7z"/>
			<path fill="#82D1A6" d="M37.5,74.4h-0.6l-0.1,0.3c0,0,0.1,0,0.1,0c0.1,0,0.2,0,0.3,0.1c0.1,0.1,0.2,0.2,0.2,0.3
				c0,0.2-0.2,0.4-0.6,0.4c-0.2,0-0.3,0-0.4-0.1l0-0.1c0.1,0,0.2,0.1,0.3,0.1c0.2,0,0.4-0.1,0.4-0.3c0-0.1-0.1-0.3-0.4-0.3
				c-0.1,0-0.2,0-0.2,0l0.1-0.6h0.7V74.4z"/>
		</g>
		<g>
			<path fill="#82D1A6" d="M34.8,71.2L34.8,71.2L35,71c0.4-0.3,0.6-0.4,0.6-0.6c0-0.1-0.1-0.2-0.3-0.2c-0.1,0-0.3,0.1-0.3,0.1
				l-0.1-0.1c0.1-0.1,0.3-0.1,0.4-0.1c0.3,0,0.5,0.2,0.5,0.3c0,0.2-0.2,0.4-0.5,0.6l-0.1,0.1v0h0.7v0.1H34.8z"/>
			<path fill="#82D1A6" d="M36,71.5c0-0.1,0.1-0.3,0.1-0.4l0.2,0c-0.1,0.1-0.2,0.3-0.2,0.4L36,71.5z"/>
			<path fill="#82D1A6" d="M37.6,70.7c0,0.4-0.2,0.6-0.5,0.6c-0.3,0-0.5-0.2-0.5-0.6c0-0.4,0.2-0.6,0.5-0.6
				C37.4,70.1,37.6,70.3,37.6,70.7z M36.7,70.7c0,0.3,0.1,0.5,0.3,0.5c0.2,0,0.3-0.2,0.3-0.5c0-0.3-0.1-0.5-0.3-0.5
				C36.9,70.2,36.7,70.3,36.7,70.7z"/>
		</g>
		<g>
			<path fill="#82D1A6" d="M34.8,67.1L34.8,67.1l0.2-0.2c0.4-0.3,0.6-0.4,0.6-0.6c0-0.1-0.1-0.2-0.3-0.2c-0.1,0-0.3,0.1-0.3,0.1
				L34.9,66c0.1-0.1,0.3-0.1,0.4-0.1c0.3,0,0.5,0.2,0.5,0.3c0,0.2-0.2,0.4-0.5,0.6l-0.1,0.1v0h0.7v0.1H34.8z"/>
			<path fill="#82D1A6" d="M36,67.3c0-0.1,0.1-0.3,0.1-0.4l0.2,0c-0.1,0.1-0.2,0.3-0.2,0.4L36,67.3z"/>
			<path fill="#82D1A6" d="M37.5,66h-0.6l-0.1,0.3c0,0,0.1,0,0.1,0c0.1,0,0.2,0,0.3,0.1c0.1,0.1,0.2,0.2,0.2,0.3
				c0,0.2-0.2,0.4-0.6,0.4c-0.2,0-0.3,0-0.4-0.1l0-0.1c0.1,0,0.2,0.1,0.3,0.1c0.2,0,0.4-0.1,0.4-0.3c0-0.1-0.1-0.3-0.4-0.3
				c-0.1,0-0.2,0-0.2,0l0.1-0.6h0.7V66z"/>
		</g>
		<g>
			<path fill="#82D1A6" d="M34.9,62.6c0.1,0,0.2,0.1,0.3,0.1c0.3,0,0.4-0.1,0.4-0.2c0-0.2-0.2-0.2-0.4-0.2h-0.1v-0.1h0.1
				c0.2,0,0.3-0.1,0.3-0.2c0-0.1-0.1-0.2-0.3-0.2c-0.1,0-0.2,0-0.3,0.1l-0.1-0.1c0.1,0,0.2-0.1,0.4-0.1c0.3,0,0.5,0.1,0.5,0.3
				c0,0.1-0.1,0.2-0.3,0.3l0,0c0.2,0,0.3,0.1,0.3,0.3c0,0.2-0.2,0.4-0.6,0.4c-0.2,0-0.3,0-0.4-0.1L34.9,62.6z"/>
			<path fill="#82D1A6" d="M36,63c0-0.1,0.1-0.3,0.1-0.4l0.2,0c-0.1,0.1-0.2,0.4-0.2,0.4L36,63z"/>
			<path fill="#82D1A6" d="M37.6,62.2c0,0.4-0.2,0.6-0.5,0.6c-0.3,0-0.5-0.2-0.5-0.6c0-0.4,0.2-0.6,0.5-0.6
				C37.4,61.6,37.6,61.8,37.6,62.2z M36.7,62.2c0,0.3,0.1,0.5,0.3,0.5c0.2,0,0.3-0.2,0.3-0.5c0-0.3-0.1-0.5-0.3-0.5
				C36.9,61.7,36.7,61.9,36.7,62.2z"/>
		</g>
		<g>
			<path fill="#82D1A6" d="M34.9,58.3c0.1,0,0.2,0.1,0.3,0.1c0.3,0,0.4-0.1,0.4-0.2c0-0.2-0.2-0.2-0.4-0.2h-0.1v-0.1h0.1
				c0.2,0,0.3-0.1,0.3-0.2c0-0.1-0.1-0.2-0.3-0.2c-0.1,0-0.2,0-0.3,0.1l-0.1-0.1c0.1,0,0.2-0.1,0.4-0.1c0.3,0,0.5,0.1,0.5,0.3
				c0,0.1-0.1,0.2-0.3,0.3l0,0c0.2,0,0.3,0.1,0.3,0.3c0,0.2-0.2,0.4-0.6,0.4c-0.2,0-0.3,0-0.4-0.1L34.9,58.3z"/>
			<path fill="#82D1A6" d="M36,58.8c0-0.1,0.1-0.3,0.1-0.4l0.2,0c-0.1,0.1-0.2,0.3-0.2,0.4L36,58.8z"/>
			<path fill="#82D1A6" d="M37.5,57.5h-0.6l-0.1,0.3c0,0,0.1,0,0.1,0c0.1,0,0.2,0,0.3,0.1c0.1,0.1,0.2,0.2,0.2,0.3
				c0,0.2-0.2,0.4-0.6,0.4c-0.2,0-0.3,0-0.4-0.1l0-0.1c0.1,0,0.2,0.1,0.3,0.1c0.2,0,0.4-0.1,0.4-0.3c0-0.1-0.1-0.3-0.4-0.3
				c-0.1,0-0.2,0-0.2,0l0.1-0.6h0.7V57.5z"/>
		</g>
	</g>
	<path fill-rule="evenodd" clip-rule="evenodd" fill="#F65656" d="M58.5,91.6c5.2,0,5.1-31.1,13.6-31.1c8.4,0,9.1,31.1,14,31.1
		C88.3,91.6,56.3,91.6,58.5,91.6z"/>
	<path fill-rule="evenodd" clip-rule="evenodd" fill="#53A8AD" d="M42.8,91.6c5.2,0,5.1-12.8,13.6-12.8c8.4,0,9.1,12.8,14,12.8
		C72.5,91.6,40.6,91.6,42.8,91.6z"/>
	<path fill-rule="evenodd" clip-rule="evenodd" fill="#445D82" d="M62.8,82.3c-1.2,5.2-2.4,9.3-4.3,9.3c0.8,0,6,0,11.8,0
		C67.1,91.6,65.8,86.1,62.8,82.3z"/>
	<path fill-rule="evenodd" clip-rule="evenodd" fill="#EFC550" d="M74.3,91.6c5.2,0,5.1-7.4,13.6-7.4c8.4,0,9.1,7.4,14,7.4
		C104.1,91.6,72.1,91.6,74.3,91.6z"/>
	<path fill-rule="evenodd" clip-rule="evenodd" fill="#ED897C" d="M82.7,85.6c-3.6,2.1-4.5,6.1-8.4,6.1c5.7,0,11,0,11.8,0
		C84.7,91.6,83.7,89.1,82.7,85.6z"/>
	<path fill-rule="evenodd" clip-rule="evenodd" fill="#60BFA9" d="M90.1,91.6c5.2,0,5.1-21.4,13.6-21.4c8.4,0,9.1,21.4,14,21.4
		C119.8,91.6,87.9,91.6,90.1,91.6z"/>
	<path fill-rule="evenodd" clip-rule="evenodd" fill="#90D690" d="M94.1,86.1c-1.1,3.2-2.2,5.5-4,5.5c5.7,0,11,0,11.8,0
		C98.6,91.6,97.2,88.3,94.1,86.1z"/>
</g>
<g>
	<polygon fill="#82D1A6" points="119.6,43.6 41.2,43.6 41.2,4.8 41.6,4.8 41.6,43.4 119.6,43.4 119.6,43.6 	"/>
	<polygon fill="#82D1A6" points="49.6,43.5 49.2,43.5 49.2,41.6 49.6,41.6 49.6,43.5 	"/>
	<polygon fill="#82D1A6" points="56.8,43.5 56.4,43.5 56.4,41.6 56.8,41.6 56.8,43.5 	"/>
	<polygon fill="#82D1A6" points="64.3,43.5 63.9,43.5 63.9,41.6 64.3,41.6 64.3,43.5 	"/>
	<polygon fill="#82D1A6" points="71.8,43.5 71.5,43.5 71.5,41.6 71.8,41.6 71.8,43.5 	"/>
	<polygon fill="#82D1A6" points="79.1,43.5 78.7,43.5 78.7,41.6 79.1,41.6 79.1,43.5 	"/>
	<polygon fill="#82D1A6" points="86.5,43.5 86.1,43.5 86.1,41.6 86.5,41.6 86.5,43.5 	"/>
	<polygon fill="#82D1A6" points="49.5,43.5 49.3,43.5 49.3,4.8 49.5,4.8 49.5,43.5 	"/>
	<polygon fill="#82D1A6" points="56.7,43.5 56.5,43.5 56.5,4.8 56.7,4.8 56.7,43.5 	"/>
	<polygon fill="#82D1A6" points="64.2,43.5 64,43.5 64,4.8 64.2,4.8 64.2,43.5 	"/>
	<polygon fill="#82D1A6" points="71.8,43.5 71.5,43.5 71.5,4.8 71.8,4.8 71.8,43.5 	"/>
	<polygon fill="#82D1A6" points="79,43.5 78.8,43.5 78.8,4.8 79,4.8 79,43.5 	"/>
	<polygon fill="#82D1A6" points="86.5,43.5 86.2,43.5 86.2,4.8 86.5,4.8 86.5,43.5 	"/>
	<polygon fill="#82D1A6" points="119.6,39.7 40.2,39.7 40.2,39.5 119.6,39.5 119.6,39.7 	"/>
	<polygon fill="#82D1A6" points="119.6,35.8 40.2,35.8 40.2,35.7 119.6,35.7 119.6,35.8 	"/>
	<polygon fill="#82D1A6" points="119.6,31.9 40.2,31.9 40.2,31.8 119.6,31.8 119.6,31.9 	"/>
	<polygon fill="#82D1A6" points="119.6,28.1 40.2,28.1 40.2,27.9 119.6,27.9 119.6,28.1 	"/>
	<polygon fill="#82D1A6" points="119.6,24.2 40.2,24.2 40.2,24.1 119.6,24.1 119.6,24.2 	"/>
	<polygon fill="#82D1A6" points="119.6,20.3 40.2,20.3 40.2,20.2 119.6,20.2 119.6,20.3 	"/>
	<polygon fill="#82D1A6" points="119.6,16.5 40.2,16.5 40.2,16.3 119.6,16.3 119.6,16.5 	"/>
	<polygon fill="#82D1A6" points="119.6,12.6 40.2,12.6 40.2,12.5 119.6,12.5 119.6,12.6 	"/>
	<polygon fill="#82D1A6" points="119.6,8.7 40.2,8.7 40.2,8.5 119.6,8.5 119.6,8.7 	"/>
	<polygon fill="#82D1A6" points="119.6,4.8 40.2,4.8 40.2,4.7 119.6,4.7 119.6,4.8 	"/>
	<g>
		<path fill="#82D1A6" d="M54.8,46.4v-1.2h0.3l0.6,0.6c0.1,0.1,0.3,0.3,0.3,0.4h0c0-0.2,0-0.3,0-0.5v-0.5h0.2v1.2H56l-0.6-0.6
			c-0.1-0.1-0.3-0.3-0.3-0.4l0,0c0,0.1,0,0.3,0,0.5v0.5H54.8z"/>
		<path fill="#82D1A6" d="M57.8,46c0,0.3-0.3,0.4-0.7,0.4c-0.3,0-0.6-0.2-0.6-0.4c0-0.3,0.3-0.4,0.6-0.4
			C57.6,45.6,57.8,45.7,57.8,46z M56.8,46c0,0.2,0.2,0.3,0.4,0.3c0.2,0,0.4-0.1,0.4-0.3c0-0.1-0.1-0.3-0.4-0.3
			C56.9,45.7,56.8,45.8,56.8,46z"/>
		<path fill="#82D1A6" d="M58.2,45.6l0.3,0.5c0.1,0.1,0.1,0.1,0.1,0.2l0,0c0-0.1,0.1-0.1,0.1-0.2l0.3-0.5h0.2l-0.5,0.8h-0.2L58,45.6
			H58.2z"/>
	</g>
	<g>
		<path fill="#82D1A6" d="M62.3,45.3c0.1,0,0.3,0,0.5,0c0.3,0,0.6,0.1,0.8,0.1c0.2,0.1,0.2,0.2,0.2,0.4c0,0.2-0.1,0.3-0.3,0.5
			c-0.2,0.1-0.5,0.2-0.8,0.2c-0.2,0-0.3,0-0.4,0V45.3z M62.5,46.3c0.1,0,0.1,0,0.2,0c0.5,0,0.8-0.2,0.8-0.5c0-0.3-0.2-0.5-0.7-0.5
			c-0.1,0-0.2,0-0.3,0V46.3z"/>
		<path fill="#82D1A6" d="M64.2,46c0,0.2,0.2,0.3,0.5,0.3c0.2,0,0.3,0,0.4,0l0.1,0.1c-0.1,0-0.2,0.1-0.5,0.1c-0.4,0-0.6-0.2-0.6-0.4
			c0-0.3,0.2-0.5,0.6-0.5c0.4,0,0.6,0.2,0.6,0.4c0,0,0,0.1,0,0.1H64.2z M64.9,45.9c0-0.1-0.1-0.2-0.3-0.2c-0.2,0-0.3,0.1-0.4,0.2
			H64.9z"/>
		<path fill="#82D1A6" d="M66.4,46.4c-0.1,0-0.2,0-0.4,0c-0.4,0-0.7-0.2-0.7-0.4c0-0.3,0.3-0.4,0.7-0.4c0.1,0,0.3,0,0.3,0l0,0.1
			c-0.1,0-0.2,0-0.3,0c-0.3,0-0.5,0.1-0.5,0.3c0,0.2,0.2,0.3,0.5,0.3c0.1,0,0.2,0,0.3,0L66.4,46.4z"/>
	</g>
	<g>
		<path fill="#82D1A6" d="M70.1,45.2h0.2V46c0,0.3-0.2,0.4-0.6,0.4c-0.1,0-0.2,0-0.3,0l0-0.1c0,0,0.1,0,0.2,0c0.2,0,0.3-0.1,0.3-0.3
			V45.2z"/>
		<path fill="#82D1A6" d="M71.8,46.2c0,0.1,0,0.2,0,0.2h-0.2l0-0.1h0c-0.1,0.1-0.2,0.1-0.4,0.1c-0.3,0-0.4-0.1-0.4-0.2
			c0-0.2,0.3-0.3,0.8-0.3v0c0-0.1,0-0.2-0.3-0.2c-0.1,0-0.3,0-0.3,0.1l-0.1-0.1c0.1,0,0.3-0.1,0.4-0.1c0.4,0,0.5,0.2,0.5,0.3V46.2z
			 M71.6,46c-0.3,0-0.6,0-0.6,0.2c0,0.1,0.1,0.1,0.2,0.1c0.2,0,0.3-0.1,0.4-0.1c0,0,0,0,0-0.1V46z"/>
		<path fill="#82D1A6" d="M72.3,45.8c0-0.1,0-0.2,0-0.2h0.2l0,0.1h0c0.1-0.1,0.2-0.1,0.4-0.1c0.2,0,0.5,0.1,0.5,0.4v0.5h-0.3v-0.5
			c0-0.1-0.1-0.3-0.3-0.3c-0.2,0-0.3,0.1-0.3,0.2c0,0,0,0,0,0.1v0.5h-0.2V45.8z"/>
	</g>
	<g>
		<path fill="#82D1A6" d="M77.2,45.2h1v0.1h-0.8v0.4h0.7v0.1h-0.7v0.5h-0.2V45.2z"/>
		<path fill="#82D1A6" d="M78.5,46c0,0.2,0.2,0.3,0.5,0.3c0.2,0,0.3,0,0.4,0l0.1,0.1c-0.1,0-0.2,0.1-0.4,0.1c-0.4,0-0.7-0.2-0.7-0.4
			c0-0.3,0.2-0.5,0.6-0.5c0.4,0,0.5,0.2,0.5,0.4c0,0,0,0.1,0,0.1H78.5z M79.2,45.9c0-0.1,0-0.2-0.3-0.2c-0.3,0-0.3,0.1-0.4,0.2H79.2
			z"/>
		<path fill="#82D1A6" d="M79.8,45.2H80v0.5h0c0.1-0.1,0.2-0.1,0.5-0.1c0.3,0,0.5,0.2,0.5,0.4c0,0.3-0.3,0.4-0.6,0.4
			c-0.2,0-0.3,0-0.4-0.2h0v0.1h-0.2c0-0.1,0-0.1,0-0.2V45.2z M80,46.1C80,46.1,80,46.1,80,46.1c0.1,0.2,0.2,0.2,0.4,0.2
			c0.3,0,0.4-0.1,0.4-0.3c0-0.2-0.1-0.3-0.4-0.3c-0.2,0-0.3,0.1-0.4,0.2c0,0,0,0,0,0.1V46.1z"/>
	</g>
	<g>
		<path fill="#82D1A6" d="M85.8,45.9c0-0.2,0-0.4,0-0.5l0,0c-0.1,0.1-0.2,0.3-0.3,0.4l-0.3,0.6h-0.2l-0.3-0.6
			c-0.1-0.2-0.2-0.3-0.2-0.5l0,0c0,0.1,0,0.3,0,0.5l0,0.5h-0.2l0.1-1.2h0.3l0.3,0.6c0.1,0.1,0.1,0.3,0.2,0.4h0
			c0-0.1,0.1-0.2,0.2-0.4l0.3-0.6H86l0.1,1.2h-0.2L85.8,45.9z"/>
		<path fill="#82D1A6" d="M87.4,46.2c0,0.1,0,0.1,0,0.2h-0.2l0-0.1h0c-0.1,0.1-0.2,0.1-0.4,0.1c-0.3,0-0.4-0.1-0.4-0.2
			c0-0.2,0.3-0.3,0.8-0.3v0c0-0.1,0-0.2-0.3-0.2c-0.1,0-0.2,0-0.3,0.1l0-0.1c0.1,0,0.3-0.1,0.4-0.1c0.4,0,0.5,0.2,0.5,0.3V46.2z
			 M87.2,46c-0.3,0-0.5,0-0.5,0.2c0,0.1,0.1,0.1,0.2,0.1c0.2,0,0.3-0.1,0.3-0.1c0,0,0,0,0,0V46z"/>
		<path fill="#82D1A6" d="M87.8,45.8c0-0.1,0-0.2,0-0.3H88l0,0.2l0,0c0.1-0.1,0.2-0.2,0.4-0.2c0,0,0,0,0.1,0v0.1c0,0-0.1,0-0.1,0
			c-0.2,0-0.3,0.1-0.3,0.2c0,0,0,0.1,0,0.1v0.4h-0.2V45.8z"/>
	</g>
	<polygon fill="#82D1A6" points="93.9,43.5 93.5,43.5 93.5,41.6 93.9,41.6 93.9,43.5 	"/>
	<polygon fill="#82D1A6" points="93.8,43.5 93.6,43.5 93.6,4.8 93.8,4.8 93.8,43.5 	"/>
	<g>
		<path fill="#82D1A6" d="M92.2,46.1L92,46.4h-0.2l0.6-1.2h0.3l0.6,1.2H93l-0.2-0.4H92.2z M92.8,45.9l-0.2-0.3
			c-0.1-0.1-0.1-0.1-0.1-0.2h0c0,0.1-0.1,0.1-0.1,0.2l-0.2,0.3H92.8z"/>
		<path fill="#82D1A6" d="M93.6,45.9c0-0.1,0-0.2,0-0.3h0.2l0,0.1l0,0c0.1-0.1,0.3-0.2,0.5-0.2c0.3,0,0.6,0.2,0.6,0.4
			c0,0.3-0.3,0.5-0.6,0.5c-0.2,0-0.3,0-0.4-0.1h0v0.5h-0.2V45.9z M93.8,46.1C93.8,46.1,93.8,46.1,93.8,46.1c0.1,0.2,0.2,0.2,0.4,0.2
			c0.3,0,0.4-0.1,0.4-0.3c0-0.2-0.1-0.3-0.4-0.3c-0.2,0-0.3,0.1-0.4,0.2c0,0,0,0,0,0.1V46.1z"/>
		<path fill="#82D1A6" d="M95.1,45.8c0-0.1,0-0.2,0-0.3h0.2l0,0.2h0c0-0.1,0.2-0.2,0.4-0.2c0,0,0,0,0.1,0v0.1c0,0-0.1,0-0.1,0
			c-0.2,0-0.3,0.1-0.3,0.2c0,0,0,0,0,0.1v0.5h-0.2V45.8z"/>
	</g>
	<polygon fill="#82D1A6" points="101.3,43.5 100.9,43.5 100.9,41.6 101.3,41.6 101.3,43.5 	"/>
	<polygon fill="#82D1A6" points="108.8,43.5 108.5,43.5 108.5,41.6 108.8,41.6 108.8,43.5 	"/>
	<polygon fill="#82D1A6" points="116.2,43.5 115.9,43.5 115.9,41.6 116.2,41.6 116.2,43.5 	"/>
	<polygon fill="#82D1A6" points="101.2,43.5 101,43.5 101,4.8 101.2,4.8 101.2,43.5 	"/>
	<polygon fill="#82D1A6" points="108.7,43.5 108.5,43.5 108.5,4.8 108.7,4.8 108.7,43.5 	"/>
	<polygon fill="#82D1A6" points="116.1,43.5 115.9,43.5 115.9,4.8 116.1,4.8 116.1,43.5 	"/>
	<g>
		<path fill="#82D1A6" d="M100.6,45.9c0-0.2,0-0.4,0-0.5h0c-0.1,0.1-0.1,0.3-0.2,0.4l-0.3,0.6h-0.2l-0.3-0.6
			c-0.1-0.2-0.2-0.3-0.2-0.5l0,0c0,0.1,0,0.3,0,0.5l0,0.5H99l0.1-1.2h0.3l0.3,0.6c0.1,0.1,0.1,0.3,0.2,0.4h0c0-0.1,0.1-0.2,0.2-0.4
			l0.3-0.6h0.3l0.1,1.2h-0.2L100.6,45.9z"/>
		<path fill="#82D1A6" d="M102.2,46.2c0,0.1,0,0.1,0,0.2H102l0-0.1h0c-0.1,0.1-0.2,0.1-0.4,0.1c-0.3,0-0.4-0.1-0.4-0.2
			c0-0.2,0.3-0.3,0.8-0.3v0c0-0.1,0-0.2-0.3-0.2c-0.1,0-0.2,0-0.3,0.1l0-0.1c0.1,0,0.3-0.1,0.4-0.1c0.4,0,0.5,0.2,0.5,0.3V46.2z
			 M101.9,46c-0.3,0-0.6,0-0.6,0.2c0,0.1,0.1,0.1,0.2,0.1c0.2,0,0.3-0.1,0.3-0.1c0,0,0,0,0,0V46z"/>
		<path fill="#82D1A6" d="M102.6,45.6l0.3,0.5c0,0.1,0.1,0.1,0.1,0.2h0c0-0.1,0-0.1,0.1-0.2l0.3-0.5h0.3l-0.4,0.6
			c-0.2,0.3-0.3,0.4-0.4,0.5c-0.1,0.1-0.2,0.1-0.3,0.1l-0.1-0.1c0.1,0,0.1,0,0.2-0.1c0.1,0,0.1-0.1,0.2-0.2c0,0,0,0,0,0c0,0,0,0,0,0
			l-0.5-0.8H102.6z"/>
	</g>
	<g>
		<path fill="#82D1A6" d="M107.1,45.2h0.2V46c0,0.3-0.2,0.4-0.6,0.4c-0.1,0-0.2,0-0.2,0l0-0.1c0,0,0.1,0,0.2,0
			c0.2,0,0.3-0.1,0.3-0.3V45.2z"/>
		<path fill="#82D1A6" d="M108.9,46.2c0,0.1,0,0.2,0,0.2h-0.2l0-0.1h0c-0.1,0.1-0.2,0.2-0.4,0.2c-0.2,0-0.5-0.1-0.5-0.4v-0.5h0.2V46
			c0,0.2,0.1,0.3,0.3,0.3c0.2,0,0.3-0.1,0.3-0.1c0,0,0-0.1,0-0.1v-0.5h0.2V46.2z"/>
		<path fill="#82D1A6" d="M109.3,45.8c0-0.1,0-0.2,0-0.2h0.2l0,0.1l0,0c0.1-0.1,0.2-0.2,0.4-0.2c0.2,0,0.5,0.1,0.5,0.4v0.5h-0.2
			v-0.5c0-0.1-0.1-0.3-0.3-0.3c-0.2,0-0.3,0.1-0.3,0.2c0,0,0,0,0,0.1v0.5h-0.2V45.8z"/>
	</g>
	<g>
		<path fill="#82D1A6" d="M115.1,45.2h0.2V46c0,0.3-0.2,0.4-0.6,0.4c-0.1,0-0.2,0-0.3,0l0-0.1c0.1,0,0.1,0,0.2,0
			c0.2,0,0.3-0.1,0.3-0.3V45.2z"/>
		<path fill="#82D1A6" d="M116.9,46.2c0,0.1,0,0.2,0,0.2h-0.2l0-0.1h0c-0.1,0.1-0.2,0.2-0.4,0.2c-0.2,0-0.5-0.1-0.5-0.4v-0.5h0.2V46
			c0,0.2,0.1,0.3,0.3,0.3c0.2,0,0.3-0.1,0.3-0.1c0,0,0-0.1,0-0.1v-0.5h0.2V46.2z"/>
		<path fill="#82D1A6" d="M117.3,45.2h0.2v1.3h-0.2V45.2z"/>
	</g>
	<g>
		<path fill="#82D1A6" d="M48.9,45.8c0,0.4-0.4,0.6-0.9,0.6c-0.5,0-0.8-0.2-0.8-0.6c0-0.4,0.4-0.6,0.9-0.6
			C48.5,45.2,48.9,45.5,48.9,45.8z M47.4,45.8c0,0.3,0.2,0.5,0.6,0.5c0.4,0,0.6-0.2,0.6-0.5c0-0.2-0.2-0.5-0.6-0.5
			C47.6,45.3,47.4,45.6,47.4,45.8z"/>
		<path fill="#82D1A6" d="M50.1,46.4c-0.1,0-0.2,0-0.4,0c-0.4,0-0.6-0.2-0.6-0.4c0-0.3,0.3-0.4,0.7-0.4c0.2,0,0.3,0,0.3,0L50,45.7
			c-0.1,0-0.1,0-0.3,0c-0.3,0-0.5,0.1-0.5,0.3c0,0.2,0.2,0.3,0.5,0.3c0.1,0,0.2,0,0.3,0L50.1,46.4z"/>
		<path fill="#82D1A6" d="M50.7,45.4v0.2h0.4v0.1h-0.4v0.5c0,0.1,0.1,0.2,0.2,0.2c0.1,0,0.1,0,0.1,0l0,0.1c0,0-0.1,0-0.2,0
			c-0.1,0-0.2,0-0.3-0.1c-0.1-0.1-0.1-0.1-0.1-0.2v-0.5h-0.2v-0.1h0.2v-0.2L50.7,45.4z"/>
	</g>
	<g>
		<path fill="#82D1A6" d="M35.8,39.2h-0.7l-0.1,0.3c0,0,0.1,0,0.1,0c0.1,0,0.3,0,0.4,0.1c0.1,0,0.2,0.1,0.2,0.3
			c0,0.2-0.3,0.4-0.6,0.4c-0.2,0-0.3,0-0.4-0.1l0.1-0.1c0.1,0,0.2,0.1,0.4,0.1c0.2,0,0.4-0.1,0.4-0.2c0-0.1-0.1-0.2-0.5-0.2
			c-0.1,0-0.2,0-0.2,0l0.1-0.5h0.8V39.2z"/>
		<path fill="#82D1A6" d="M37.2,39.6c0,0.4-0.2,0.6-0.6,0.6c-0.3,0-0.6-0.2-0.6-0.6c0-0.4,0.2-0.6,0.6-0.6
			C37,39.1,37.2,39.3,37.2,39.6z M36.3,39.7c0,0.3,0.1,0.4,0.3,0.4c0.2,0,0.3-0.2,0.3-0.5c0-0.3-0.1-0.4-0.3-0.4
			C36.5,39.2,36.3,39.4,36.3,39.7z"/>
	</g>
	<g>
		<path fill="#82D1A6" d="M35.3,35.5L35.3,35.5L35,35.6l0-0.1l0.4-0.1h0.2v1.1h-0.2V35.5z"/>
		<path fill="#82D1A6" d="M37.2,35.9c0,0.4-0.2,0.6-0.6,0.6c-0.3,0-0.6-0.2-0.6-0.5c0-0.4,0.2-0.6,0.6-0.6
			C37,35.3,37.2,35.5,37.2,35.9z M36.3,35.9c0,0.3,0.1,0.4,0.3,0.4c0.2,0,0.3-0.2,0.3-0.4c0-0.3-0.1-0.4-0.3-0.4
			C36.5,35.5,36.3,35.6,36.3,35.9z"/>
		<path fill="#82D1A6" d="M38.5,35.9c0,0.4-0.2,0.6-0.6,0.6c-0.3,0-0.5-0.2-0.5-0.5c0-0.4,0.2-0.6,0.6-0.6
			C38.4,35.3,38.5,35.5,38.5,35.9z M37.6,35.9c0,0.3,0.2,0.4,0.4,0.4c0.2,0,0.3-0.2,0.3-0.4c0-0.3-0.1-0.4-0.3-0.4
			C37.8,35.5,37.6,35.6,37.6,35.9z"/>
	</g>
	<g>
		<path fill="#82D1A6" d="M35.3,31.6L35.3,31.6L35,31.7l0-0.1l0.4-0.1h0.2v1.1h-0.2V31.6z"/>
		<path fill="#82D1A6" d="M37.1,31.6h-0.6l-0.1,0.3c0,0,0.1,0,0.1,0c0.1,0,0.3,0,0.4,0.1c0.1,0,0.2,0.1,0.2,0.3
			c0,0.2-0.3,0.4-0.6,0.4c-0.2,0-0.3,0-0.4-0.1l0.1-0.1c0.1,0,0.2,0.1,0.4,0.1c0.2,0,0.4-0.1,0.4-0.2c0-0.1-0.1-0.2-0.5-0.2
			c-0.1,0-0.2,0-0.2,0l0.1-0.5h0.8V31.6z"/>
		<path fill="#82D1A6" d="M38.5,32c0,0.4-0.2,0.6-0.6,0.6c-0.3,0-0.5-0.2-0.5-0.6c0-0.4,0.2-0.6,0.6-0.6
			C38.4,31.4,38.5,31.6,38.5,32z M37.6,32c0,0.3,0.2,0.4,0.4,0.4c0.2,0,0.3-0.2,0.3-0.5c0-0.3-0.1-0.4-0.3-0.4
			C37.8,31.5,37.6,31.7,37.6,32z"/>
	</g>
	<g>
		<path fill="#82D1A6" d="M34.8,28.7L34.8,28.7l0.2-0.2c0.4-0.3,0.6-0.4,0.6-0.6c0-0.1-0.1-0.2-0.3-0.2c-0.2,0-0.3,0.1-0.4,0.1
			l-0.1-0.1c0.1-0.1,0.3-0.1,0.5-0.1c0.4,0,0.5,0.2,0.5,0.3c0,0.2-0.2,0.4-0.6,0.6l-0.1,0.1v0h0.8v0.1H34.8z"/>
		<path fill="#82D1A6" d="M37.2,28.1c0,0.4-0.2,0.6-0.6,0.6c-0.3,0-0.6-0.2-0.6-0.6c0-0.4,0.2-0.6,0.6-0.6
			C37,27.6,37.2,27.8,37.2,28.1z M36.3,28.1c0,0.3,0.1,0.4,0.3,0.4c0.2,0,0.3-0.2,0.3-0.5c0-0.3-0.1-0.4-0.3-0.4
			C36.5,27.7,36.3,27.8,36.3,28.1z"/>
		<path fill="#82D1A6" d="M38.5,28.1c0,0.4-0.2,0.6-0.6,0.6c-0.3,0-0.5-0.2-0.5-0.6c0-0.4,0.2-0.6,0.6-0.6
			C38.4,27.6,38.5,27.8,38.5,28.1z M37.6,28.1c0,0.3,0.2,0.4,0.4,0.4c0.2,0,0.3-0.2,0.3-0.5c0-0.3-0.1-0.4-0.3-0.4
			C37.8,27.7,37.6,27.8,37.6,28.1z"/>
	</g>
	<g>
		<path fill="#82D1A6" d="M34.8,24.8L34.8,24.8l0.2-0.2c0.4-0.3,0.6-0.4,0.6-0.6c0-0.1-0.1-0.2-0.3-0.2c-0.2,0-0.3,0-0.4,0.1
			l-0.1-0.1c0.1-0.1,0.3-0.1,0.5-0.1c0.4,0,0.5,0.2,0.5,0.3c0,0.2-0.2,0.4-0.6,0.6l-0.1,0.1l0,0h0.8v0.1H34.8z"/>
		<path fill="#82D1A6" d="M37.1,23.8h-0.6l-0.1,0.3c0,0,0.1,0,0.1,0c0.1,0,0.3,0,0.4,0.1c0.1,0,0.2,0.1,0.2,0.3
			c0,0.2-0.3,0.4-0.6,0.4c-0.2,0-0.3,0-0.4-0.1l0.1-0.1c0.1,0,0.2,0.1,0.4,0.1c0.2,0,0.4-0.1,0.4-0.2c0-0.1-0.1-0.2-0.5-0.2
			c-0.1,0-0.2,0-0.2,0l0.1-0.5h0.8V23.8z"/>
		<path fill="#82D1A6" d="M38.5,24.2c0,0.4-0.2,0.6-0.6,0.6c-0.3,0-0.5-0.2-0.5-0.6c0-0.4,0.2-0.6,0.6-0.6
			C38.4,23.7,38.5,23.9,38.5,24.2z M37.6,24.3c0,0.3,0.2,0.4,0.4,0.4c0.2,0,0.3-0.2,0.3-0.4c0-0.3-0.1-0.4-0.3-0.4
			C37.8,23.8,37.6,24,37.6,24.3z"/>
	</g>
	<g>
		<path fill="#82D1A6" d="M34.9,20.8c0.1,0,0.2,0.1,0.4,0.1c0.3,0,0.4-0.1,0.4-0.2c0-0.1-0.2-0.2-0.4-0.2H35v-0.1h0.1
			c0.2,0,0.4-0.1,0.4-0.2c0-0.1-0.1-0.2-0.3-0.2c-0.1,0-0.3,0-0.3,0.1L34.9,20c0.1,0,0.3-0.1,0.4-0.1c0.3,0,0.5,0.1,0.5,0.3
			c0,0.1-0.1,0.2-0.3,0.3l0,0c0.2,0,0.4,0.1,0.4,0.3c0,0.2-0.2,0.3-0.6,0.3c-0.2,0-0.4,0-0.4-0.1L34.9,20.8z"/>
		<path fill="#82D1A6" d="M37.2,20.4c0,0.4-0.2,0.6-0.6,0.6c-0.3,0-0.6-0.2-0.6-0.6c0-0.4,0.2-0.6,0.6-0.6
			C37,19.9,37.2,20.1,37.2,20.4z M36.3,20.4c0,0.3,0.1,0.4,0.3,0.4c0.2,0,0.3-0.2,0.3-0.5c0-0.3-0.1-0.4-0.3-0.4
			C36.5,20,36.3,20.1,36.3,20.4z"/>
		<path fill="#82D1A6" d="M38.5,20.4c0,0.4-0.2,0.6-0.6,0.6c-0.3,0-0.5-0.2-0.5-0.6c0-0.4,0.2-0.6,0.6-0.6
			C38.4,19.9,38.5,20.1,38.5,20.4z M37.6,20.4c0,0.3,0.2,0.4,0.4,0.4c0.2,0,0.3-0.2,0.3-0.5c0-0.3-0.1-0.4-0.3-0.4
			C37.8,20,37.6,20.1,37.6,20.4z"/>
	</g>
	<g>
		<path fill="#82D1A6" d="M34.9,16.9c0.1,0,0.2,0.1,0.4,0.1c0.3,0,0.4-0.1,0.4-0.2c0-0.1-0.2-0.2-0.4-0.2H35v-0.1h0.1
			c0.2,0,0.4-0.1,0.4-0.2c0-0.1-0.1-0.2-0.3-0.2c-0.1,0-0.3,0-0.3,0.1L34.9,16c0.1,0,0.3-0.1,0.4-0.1c0.3,0,0.5,0.1,0.5,0.2
			c0,0.1-0.1,0.2-0.3,0.3l0,0c0.2,0,0.4,0.1,0.4,0.3c0,0.2-0.2,0.3-0.6,0.3c-0.2,0-0.4,0-0.4-0.1L34.9,16.9z"/>
		<path fill="#82D1A6" d="M37.1,16.1h-0.6l-0.1,0.3c0,0,0.1,0,0.1,0c0.1,0,0.3,0,0.4,0.1c0.1,0,0.2,0.1,0.2,0.3
			c0,0.2-0.3,0.4-0.6,0.4c-0.2,0-0.3,0-0.4-0.1l0.1-0.1c0.1,0,0.2,0.1,0.4,0.1c0.2,0,0.4-0.1,0.4-0.2c0-0.1-0.1-0.2-0.5-0.2
			c-0.1,0-0.2,0-0.2,0l0.1-0.5h0.8V16.1z"/>
		<path fill="#82D1A6" d="M38.5,16.5c0,0.4-0.2,0.6-0.6,0.6c-0.3,0-0.5-0.2-0.5-0.6c0-0.4,0.2-0.6,0.6-0.6
			C38.4,15.9,38.5,16.1,38.5,16.5z M37.6,16.5c0,0.3,0.2,0.4,0.4,0.4c0.2,0,0.3-0.2,0.3-0.4c0-0.3-0.1-0.4-0.3-0.4
			C37.8,16.1,37.6,16.2,37.6,16.5z"/>
	</g>
	<g>
		<path fill="#82D1A6" d="M35.5,13.2v-0.3h-0.8v-0.1l0.8-0.7h0.3v0.7H36v0.1h-0.2v0.3H35.5z M35.5,12.7v-0.4c0-0.1,0-0.1,0-0.2h0
			c0,0.1-0.1,0.1-0.1,0.2L35,12.7v0H35.5z"/>
		<path fill="#82D1A6" d="M37.2,12.6c0,0.4-0.2,0.6-0.6,0.6c-0.3,0-0.6-0.2-0.6-0.6c0-0.4,0.2-0.6,0.6-0.6
			C37,12.1,37.2,12.3,37.2,12.6z M36.3,12.6c0,0.3,0.1,0.4,0.3,0.4c0.2,0,0.3-0.2,0.3-0.4c0-0.3-0.1-0.4-0.3-0.4
			C36.5,12.2,36.3,12.3,36.3,12.6z"/>
		<path fill="#82D1A6" d="M38.5,12.6c0,0.4-0.2,0.6-0.6,0.6c-0.3,0-0.5-0.2-0.5-0.6c0-0.4,0.2-0.6,0.6-0.6
			C38.4,12.1,38.5,12.3,38.5,12.6z M37.6,12.6c0,0.3,0.2,0.4,0.4,0.4c0.2,0,0.3-0.2,0.3-0.4c0-0.3-0.1-0.4-0.3-0.4
			C37.8,12.2,37.6,12.3,37.6,12.6z"/>
	</g>
	<g>
		<path fill="#82D1A6" d="M35.5,9.2V8.9h-0.8V8.8l0.8-0.7h0.3v0.7H36v0.1h-0.2v0.3H35.5z M35.5,8.8V8.4c0-0.1,0-0.1,0-0.2h0
			c0,0.1-0.1,0.1-0.1,0.2L35,8.8l0,0H35.5z"/>
		<path fill="#82D1A6" d="M37.1,8.2h-0.6l-0.1,0.3c0,0,0.1,0,0.1,0c0.1,0,0.3,0,0.4,0.1c0.1,0,0.2,0.1,0.2,0.3
			c0,0.2-0.3,0.4-0.6,0.4c-0.2,0-0.3,0-0.4-0.1L36.2,9c0.1,0,0.2,0.1,0.4,0.1c0.2,0,0.4-0.1,0.4-0.2c0-0.1-0.1-0.2-0.5-0.2
			c-0.1,0-0.2,0-0.2,0l0.1-0.5h0.8V8.2z"/>
		<path fill="#82D1A6" d="M38.5,8.7c0,0.4-0.2,0.6-0.6,0.6c-0.3,0-0.5-0.2-0.5-0.6c0-0.4,0.2-0.6,0.6-0.6
			C38.4,8.1,38.5,8.3,38.5,8.7z M37.6,8.7c0,0.3,0.2,0.4,0.4,0.4c0.2,0,0.3-0.2,0.3-0.4c0-0.3-0.1-0.4-0.3-0.4
			C37.8,8.2,37.6,8.4,37.6,8.7z"/>
	</g>
	<g>
		<path fill="#82D1A6" d="M35.8,4.4h-0.7l-0.1,0.3c0,0,0.1,0,0.1,0c0.1,0,0.3,0,0.4,0.1c0.1,0,0.2,0.1,0.2,0.3
			c0,0.2-0.3,0.4-0.6,0.4c-0.2,0-0.3,0-0.4-0.1l0.1-0.1c0.1,0,0.2,0.1,0.4,0.1c0.2,0,0.4-0.1,0.4-0.2c0-0.1-0.1-0.2-0.5-0.2
			c-0.1,0-0.2,0-0.2,0L35,4.3h0.8V4.4z"/>
		<path fill="#82D1A6" d="M37.2,4.8c0,0.4-0.2,0.6-0.6,0.6c-0.3,0-0.6-0.2-0.6-0.6c0-0.4,0.2-0.6,0.6-0.6C37,4.3,37.2,4.5,37.2,4.8z
			 M36.3,4.8c0,0.3,0.1,0.4,0.3,0.4c0.2,0,0.3-0.2,0.3-0.4c0-0.3-0.1-0.4-0.3-0.4C36.5,4.4,36.3,4.5,36.3,4.8z"/>
		<path fill="#82D1A6" d="M38.5,4.8c0,0.4-0.2,0.6-0.6,0.6c-0.3,0-0.5-0.2-0.5-0.6c0-0.4,0.2-0.6,0.6-0.6
			C38.4,4.3,38.5,4.5,38.5,4.8z M37.6,4.8c0,0.3,0.2,0.4,0.4,0.4c0.2,0,0.3-0.2,0.3-0.4c0-0.3-0.1-0.4-0.3-0.4
			C37.8,4.4,37.6,4.5,37.6,4.8z"/>
	</g>
	<polygon fill="#445D82" points="53.1,35.8 49.4,32.4 45.7,33.8 46.7,34 46.7,41.9 52,43.3 52,35.5 	"/>
	<polygon fill="#53A8AD" points="60.5,24.3 56.8,20.9 53.1,22.3 54.1,22.6 54.1,41.9 59.4,43.3 59.4,24 	"/>
	<polygon fill="#EFC550" points="67.9,16.3 64.1,12.9 60.4,14.3 61.5,14.6 61.5,41.9 66.8,43.3 66.8,16 	"/>
	<polygon fill="#EFC550" points="112.3,16.3 108.6,12.9 104.9,14.3 106,14.6 106,41.9 111.3,43.3 111.3,16 	"/>
	<polygon fill="#F65656" points="75.2,8.3 71.5,4.9 67.8,6.3 68.9,6.6 68.9,41.9 74.2,43.3 74.2,8 	"/>
	<polygon fill="#F65656" points="119.4,8.3 115.7,4.9 112,6.3 113.1,6.6 113.1,41.9 118.3,43.3 118.3,8 	"/>
	<polygon fill="#EF7B89" points="82.6,12.8 78.9,9.4 75.2,10.8 76.3,11.1 76.3,41.9 81.6,43.3 81.6,12.6 	"/>
	<polygon fill="#F65656" points="90,10.7 86.3,7.3 82.6,8.7 83.7,8.9 83.7,41.9 88.9,43.3 88.9,10.4 	"/>
	<polygon fill="#53A8AD" points="97.4,21.9 93.7,18.5 90,19.9 91,20.2 91,41.9 96.3,43.3 96.3,21.6 	"/>
	<polygon fill="#EF7B89" points="104.8,13.1 101.1,9.7 97.4,11.1 98.4,11.4 98.4,41.9 103.7,43.3 103.7,12.9 	"/>
</g>
<path fill="#FFFFFF" stroke="#00414A" stroke-miterlimit="10" d="M4,29.1h24.2V5H4V29.1z M28.2,29.1H4V5h24.2V29.1z M28.6,29.5H3.7
	V4.6h24.9V29.5z"/>
<path fill="#00A79E" d="M11.8,16.8h4V7.9h-4V16.8z M4.9,16.8h4V7.9h-4V16.8z"/>
<path fill="#00414A" d="M18.8,5.9h-2.4v2C16.7,6.9,17.6,6.2,18.8,5.9 M22.5,12.4L19.9,12c-1.5-0.2-3-0.6-3.5-2v3.2h2.9
	c0,1.5,1.5,1.7,2.8,1.7c1.4,0,2.3-0.4,2.3-1.3C24.4,12.8,23.7,12.6,22.5,12.4 M24.3,5.9c1.5,0.4,2.8,1.2,2.9,3.1H24
	c-0.2-1.4-1.5-1.5-2.7-1.5c-1.2,0-2,0.5-2,1.3c0,0.6,0.5,0.9,1.2,1l3.7,0.6c1.4,0.2,2.5,0.7,3.1,1.6v-6H24.3z M24.1,16.8h3.2v-1.9
	C26.8,15.8,25.8,16.5,24.1,16.8 M16.4,14.9v1.9h3.3C18.3,16.6,17,16,16.4,14.9"/>
<path fill="#00414A" d="M14.7,22.2L14.7,22.2c0.4,0.1,0.8,0.3,1.1,0.6v-1.5C15.6,21.8,15.2,22.1,14.7,22.2 M13.1,17.3
	c1.1,0,2.2,0.4,2.7,1.3v-1.3H13.1z M15.8,28.2v-1c-0.6,0.6-1.6,1-3.1,1H15.8z M13.1,20.5c0-0.7-0.3-1.2-1.5-1.2H7.9v2.3H12
	C12.7,21.7,13.1,21.3,13.1,20.5 M13.5,24.9c0-0.9-0.5-1.3-1.6-1.3H7.9v2.6h4.4C13.2,26.1,13.5,25.5,13.5,24.9"/>
<path fill="#00A79E" d="M21.9,19.7L20.2,24h3.4L21.9,19.7z M19.4,26l-0.9,2.2h6.8L24.4,26H19.4z M16.4,17.3v8.3l3.6-8.3H16.4z
	 M23.7,17.3l3.6,8.3v-8.3H23.7z"/>
<text transform="matrix(1 0 0 1 6.8953 107.183)"><tspan x="0" y="0" font-family="'MyriadPro-Regular'" font-size="12">Create charts with</tspan><tspan x="14" y="14.4" font-family="'MyriadPro-Regular'" font-size="12">Google Chart.js</tspan></text>
</svg>
